<svg xmlns="http://www.w3.org/2000/svg" viewBox="0 0 192 192" width="192" height="192">
  <!-- Teal circle background -->
  <circle cx="96" cy="96" r="96" fill="#0D9488"/>
  <!-- Subtle inner shadow ring -->
  <circle cx="96" cy="96" r="88" fill="none" stroke="rgba(255,255,255,0.08)" stroke-width="2"/>
  <!-- Building base/ground -->
  <rect x="36" y="148" width="120" height="4" rx="2" fill="rgba(255,255,255,0.3)"/>
  <!-- Main building - center tall tower -->
  <rect x="68" y="52" width="56" height="96" rx="3" fill="white"/>
  <!-- Left wing -->
  <rect x="40" y="76" width="32" height="72" rx="3" fill="rgba(255,255,255,0.85)"/>
  <!-- Right wing -->
  <rect x="120" y="76" width="32" height="72" rx="3" fill="rgba(255,255,255,0.85)"/>
  <!-- Center tower windows - row 1 -->
  <rect x="76" y="60" width="10" height="10" rx="1.5" fill="#0D9488" opacity="0.5"/>
  <rect x="91" y="60" width="10" height="10" rx="1.5" fill="#0D9488" opacity="0.5"/>
  <rect x="106" y="60" width="10" height="10" rx="1.5" fill="#0D9488" opacity="0.5"/>
  <!-- Center tower windows - row 2 -->
  <rect x="76" y="76" width="10" height="10" rx="1.5" fill="#0D9488" opacity="0.4"/>
  <rect x="91" y="76" width="10" height="10" rx="1.5" fill="#0D9488" opacity="0.4"/>
  <rect x="106" y="76" width="10" height="10" rx="1.5" fill="#0D9488" opacity="0.4"/>
  <!-- Center tower windows - row 3 -->
  <rect x="76" y="92" width="10" height="10" rx="1.5" fill="#0D9488" opacity="0.35"/>
  <rect x="91" y="92" width="10" height="10" rx="1.5" fill="#0D9488" opacity="0.35"/>
  <rect x="106" y="92" width="10" height="10" rx="1.5" fill="#0D9488" opacity="0.35"/>
  <!-- Center tower windows - row 4 -->
  <rect x="76" y="108" width="10" height="10" rx="1.5" fill="#0D9488" opacity="0.3"/>
  <rect x="91" y="108" width="10" height="10" rx="1.5" fill="#0D9488" opacity="0.3"/>
  <rect x="106" y="108" width="10" height="10" rx="1.5" fill="#0D9488" opacity="0.3"/>
  <!-- Center entrance door -->
  <rect x="88" y="128" width="16" height="20" rx="8" fill="#0D9488" opacity="0.4"/>
  <!-- Left wing windows - row 1 -->
  <rect x="47" y="84" width="8" height="8" rx="1.5" fill="#0D9488" opacity="0.4"/>
  <rect x="59" y="84" width="8" height="8" rx="1.5" fill="#0D9488" opacity="0.4"/>
  <!-- Left wing windows - row 2 -->
  <rect x="47" y="98" width="8" height="8" rx="1.5" fill="#0D9488" opacity="0.35"/>
  <rect x="59" y="98" width="8" height="8" rx="1.5" fill="#0D9488" opacity="0.35"/>
  <!-- Left wing windows - row 3 -->
  <rect x="47" y="112" width="8" height="8" rx="1.5" fill="#0D9488" opacity="0.3"/>
  <rect x="59" y="112" width="8" height="8" rx="1.5" fill="#0D9488" opacity="0.3"/>
  <!-- Right wing windows - row 1 -->
  <rect x="125" y="84" width="8" height="8" rx="1.5" fill="#0D9488" opacity="0.4"/>
  <rect x="137" y="84" width="8" height="8" rx="1.5" fill="#0D9488" opacity="0.4"/>
  <!-- Right wing windows - row 2 -->
  <rect x="125" y="98" width="8" height="8" rx="1.5" fill="#0D9488" opacity="0.35"/>
  <rect x="137" y="98" width="8" height="8" rx="1.5" fill="#0D9488" opacity="0.35"/>
  <!-- Right wing windows - row 3 -->
  <rect x="125" y="112" width="8" height="8" rx="1.5" fill="#0D9488" opacity="0.3"/>
  <rect x="137" y="112" width="8" height="8" rx="1.5" fill="#0D9488" opacity="0.3"/>
  <!-- Shield/checkmark accent (security trust indicator) -->
  <g transform="translate(130, 38)">
    <!-- Shield shape -->
    <path d="M16 4 L28 9 L28 18 C28 25 22 30 16 32 C10 30 4 25 4 18 L4 9 Z" fill="white"/>
    <!-- Checkmark inside shield -->
    <polyline points="10,18 14,22 22,13" fill="none" stroke="#0D9488" stroke-width="2.5" stroke-linecap="round" stroke-linejoin="round"/>
  </g>
</svg>
