<svg xmlns="http://www.w3.org/2000/svg" width="512" height="512" viewBox="0 0 512 512">
  <defs>
    <clipPath id="circle-clip-512">
      <circle cx="256" cy="256" r="256"/>
    </clipPath>
  </defs>
  <!-- Background circle -->
  <circle cx="256" cy="256" r="256" fill="#0D1117"/>
  <!-- Radar/ping arcs -->
  <g clip-path="url(#circle-clip-512)">
    <!-- Outer arc -->
    <path d="M 256 80 A 176 176 0 0 1 432 256" fill="none" stroke="#58A6FF" stroke-width="13" stroke-linecap="round" opacity="0.4"/>
    <!-- Middle arc -->
    <path d="M 256 123 A 133 133 0 0 1 389 256" fill="none" stroke="#58A6FF" stroke-width="13" stroke-linecap="round" opacity="0.6"/>
    <!-- Inner arc -->
    <path d="M 256 166 A 90 90 0 0 1 346 256" fill="none" stroke="#58A6FF" stroke-width="13" stroke-linecap="round" opacity="0.9"/>
    <!-- Ping dot -->
    <circle cx="256" cy="256" r="10" fill="#58A6FF"/>
  </g>
  <!-- Shopping bag -->
  <g transform="translate(256, 280)" fill="none" stroke="#F0F6FC" stroke-width="10" stroke-linecap="round" stroke-linejoin="round">
    <!-- Bag body -->
    <path d="M -64 -22 L -53 -75 L 53 -75 L 64 -22 L 64 53 C 64 59 59 64 53 64 L -53 64 C -59 64 -64 59 -64 53 Z" fill="#F0F6FC" fill-opacity="0.1"/>
    <!-- Bag handles -->
    <path d="M -27 -75 L -27 -101 C -27 -117 -11 -128 0 -128 C 11 -128 27 -117 27 -101 L 27 -75" fill="none"/>
  </g>
</svg>
