<svg xmlns="http://www.w3.org/2000/svg" viewBox="0 0 512 512" width="512" height="512">
  <!-- Background circle -->
  <circle cx="256" cy="256" r="256" fill="#FF6B35"/>
  <!-- Subtle inner glow -->
  <circle cx="256" cy="256" r="213" fill="none" stroke="rgba(255,255,255,0.1)" stroke-width="4"/>
  <!-- House body -->
  <rect x="165" y="253" width="182" height="139" rx="8" fill="white"/>
  <!-- Roof -->
  <polygon points="256,128 112,253 144,253 256,160 368,253 400,253" fill="white"/>
  <!-- Chimney -->
  <rect x="331" y="160" width="32" height="75" rx="4" fill="white"/>
  <!-- Door -->
  <rect x="224" y="307" width="64" height="85" rx="8" fill="#FF6B35"/>
  <!-- Door knob -->
  <circle cx="272" cy="352" r="6" fill="white"/>
  <!-- Window left -->
  <rect x="181" y="272" width="43" height="37" rx="6" fill="#FF6B35" opacity="0.85"/>
  <line x1="202.5" y1="272" x2="202.5" y2="309" stroke="white" stroke-width="3"/>
  <line x1="181" y1="290.5" x2="224" y2="290.5" stroke="white" stroke-width="3"/>
  <!-- Window right -->
  <rect x="288" y="272" width="43" height="37" rx="6" fill="#FF6B35" opacity="0.85"/>
  <line x1="309.5" y1="272" x2="309.5" y2="309" stroke="white" stroke-width="3"/>
  <line x1="288" y1="290.5" x2="331" y2="290.5" stroke="white" stroke-width="3"/>
  <!-- Heart inside roof area -->
  <path d="M256 208 C256 208, 234 181, 219 197 C203 213, 219 235, 256 256 C293 235, 309 213, 293 197 C278 181, 256 208, 256 208Z" fill="#FFB74D" opacity="0.9"/>
</svg>
